<?xml version="1.0" standalone="no"?>
<!DOCTYPE svg PUBLIC "-//W3C//DTD SVG 20010904//EN"
 "http://www.w3.org/TR/2001/REC-SVG-20010904/DTD/svg10.dtd">
<svg version="1.0" xmlns="http://www.w3.org/2000/svg"
 width="512.000000pt" height="512.000000pt" viewBox="0 0 512.000000 512.000000"
 preserveAspectRatio="xMidYMid meet">
<metadata>
Created by potrace 1.11, written by Peter Selinger 2001-2013
</metadata>
<g transform="translate(0.000000,512.000000) scale(0.100000,-0.100000)"
fill="#000000" stroke="none">
<path d="M3550 4895 c-6 -7 -20 -12 -30 -10 -11 2 -22 -1 -25 -6 -4 -5 -12 -6
-18 -2 -24 15 -53 8 -79 -20 -16 -17 -28 -23 -28 -16 0 11 -3 11 -10 -1 -5 -8
-10 -10 -10 -4 0 7 -6 14 -13 17 -8 3 -14 -1 -14 -9 0 -7 5 -10 10 -7 6 3 7 1
3 -6 -6 -9 -11 -9 -22 0 -11 9 -16 5 -26 -17 -7 -16 -15 -31 -18 -34 -3 -3 -6
-18 -8 -35 -4 -52 -5 -54 -14 -49 -4 3 -3 15 3 27 10 21 9 21 -5 3 -11 -13
-12 -24 -6 -37 7 -12 7 -20 0 -24 -6 -4 -8 -11 -5 -16 4 -5 2 -9 -4 -9 -6 0
-7 -7 -4 -17 4 -9 2 -14 -3 -10 -5 3 -11 -6 -12 -21 -1 -14 -7 -31 -12 -36 -6
-6 -10 -15 -10 -20 0 -6 5 -4 10 4 5 8 10 11 10 5 -1 -18 -27 -45 -36 -37 -4
4 -3 0 4 -9 13 -17 6 -53 -8 -44 -5 3 -6 -5 -2 -17 3 -13 1 -19 -5 -15 -6 4
-9 -5 -7 -24 2 -18 0 -28 -6 -24 -6 3 -7 -1 -4 -10 4 -8 1 -22 -6 -30 -6 -8
-9 -19 -5 -25 3 -5 2 -10 -3 -10 -5 0 -8 -14 -7 -30 1 -17 -3 -34 -8 -37 -6
-3 -7 -1 -3 5 4 7 3 12 -2 12 -6 0 -12 -7 -16 -15 -3 -8 -1 -15 5 -15 6 0 6
-7 -1 -20 -6 -11 -8 -25 -5 -30 3 -6 1 -10 -6 -10 -8 0 -7 -5 2 -17 8 -9 9
-14 2 -10 -14 9 -26 -23 -17 -49 4 -14 3 -15 -4 -6 -7 11 -10 11 -15 -2 -4 -9
-2 -16 4 -16 6 0 7 -5 4 -10 -4 -6 -10 -8 -15 -5 -4 3 -6 -4 -3 -16 4 -12 0
-25 -8 -30 -11 -7 -11 -9 -1 -9 7 0 10 -5 7 -10 -4 -6 -10 -8 -14 -6 -4 3 -8
-1 -8 -8 0 -9 7 -12 16 -8 14 5 14 4 1 -10 -8 -9 -18 -14 -23 -11 -11 7 -4
-21 8 -29 6 -5 6 -8 -2 -8 -6 0 -10 -11 -8 -25 2 -18 -1 -23 -10 -15 -8 7 -11
1 -10 -23 1 -39 -4 -59 -15 -52 -5 3 -12 1 -15 -5 -4 -6 -3 -10 2 -9 19 3 27
-2 15 -10 -7 -4 -14 -22 -14 -39 -1 -17 -5 -29 -11 -25 -5 3 -4 -4 2 -15 8
-15 8 -23 -1 -28 -6 -4 -8 -3 -4 4 3 6 2 13 -3 17 -6 3 -8 -6 -5 -21 3 -14 1
-31 -4 -38 -4 -6 -8 -30 -8 -53 1 -29 -2 -39 -10 -32 -8 6 -11 2 -10 -13 1
-13 -3 -26 -8 -30 -6 -4 -5 -12 3 -21 13 -16 -1 -33 -18 -23 -4 3 -7 -7 -5
-22 1 -14 -3 -33 -9 -41 -10 -12 -9 -13 3 -6 12 7 13 6 3 -6 -10 -12 -10 -18
0 -29 10 -10 9 -12 -5 -7 -13 4 -16 1 -13 -14 3 -16 0 -19 -13 -15 -16 6 -16
5 0 -7 15 -12 15 -14 0 -25 -9 -7 -12 -10 -5 -7 6 3 15 1 18 -5 4 -6 1 -9 -7
-8 -7 2 -12 -2 -11 -9 1 -6 -5 -10 -15 -8 -9 1 -23 -3 -31 -9 -11 -8 -13 -8
-8 0 4 7 -1 18 -10 25 -10 8 -14 9 -10 2 4 -6 3 -14 -3 -18 -5 -3 -10 0 -10 7
0 10 -3 9 -9 -1 -8 -13 -12 -13 -27 0 -11 9 -15 9 -10 2 4 -8 2 -13 -8 -13 -8
0 -17 6 -19 13 -4 9 -6 8 -6 -2 -1 -11 -4 -11 -18 0 -14 12 -16 12 -8 0 6 -11
4 -13 -8 -8 -10 3 -17 2 -17 -4 0 -6 -5 -7 -10 -4 -8 5 -7 12 2 23 12 16 11
16 -7 2 -26 -21 -75 -26 -75 -8 0 10 -2 10 -9 -1 -8 -12 -12 -12 -25 2 -17 17
-50 12 -39 -6 3 -6 1 -7 -5 -3 -7 4 -12 14 -12 22 0 8 -8 14 -17 14 -17 1 -17
1 0 11 9 6 15 14 12 20 -4 5 -1 9 6 9 8 0 7 5 -2 17 -8 10 -9 14 -2 10 6 -4
14 -3 18 3 3 5 1 10 -5 10 -7 0 -5 7 4 16 20 20 21 30 1 14 -23 -19 -18 -3 8
21 12 12 16 18 8 14 -11 -6 -13 -3 -9 13 4 15 0 25 -10 32 -10 5 -12 10 -6 10
17 0 24 36 10 51 -8 9 -7 10 8 5 16 -5 17 -4 6 9 -7 9 -10 18 -6 22 3 4 -4 18
-16 31 -13 14 -18 22 -12 19 7 -4 14 0 18 8 3 9 -1 15 -11 15 -12 0 -13 3 -4
14 9 11 9 16 1 21 -7 4 -10 16 -7 26 3 10 0 22 -5 26 -7 4 -8 1 -3 -7 5 -9 4
-11 -4 -6 -6 4 -9 16 -6 27 4 11 2 19 -5 19 -7 0 -7 7 1 23 11 20 11 21 -4 8
-16 -13 -19 -9 -16 16 0 4 -9 11 -21 15 -12 4 -18 12 -15 18 3 6 -1 17 -9 26
-9 9 -14 19 -11 24 6 10 -23 22 -35 15 -5 -3 -7 4 -5 15 4 18 -6 25 -29 21 -5
-1 -6 4 -3 12 4 10 -2 13 -19 11 -21 -2 -22 0 -13 17 8 16 7 20 -3 18 -26 -3
-39 1 -33 11 3 6 -1 10 -10 10 -11 0 -15 5 -12 14 4 10 1 13 -8 10 -16 -7 -48
20 -37 30 3 4 -1 4 -10 1 -8 -3 -23 1 -31 10 -9 9 -20 17 -24 18 -4 1 -7 6 -5
10 1 4 -7 3 -19 -4 -19 -10 -21 -9 -15 6 5 15 4 16 -9 5 -12 -10 -15 -10 -15
4 0 19 -16 21 -23 4 -4 -10 -6 -10 -6 0 -1 6 -13 12 -27 12 -16 0 -23 4 -18
11 4 7 -1 7 -16 -1 -20 -11 -22 -10 -17 4 6 14 3 15 -13 6 -11 -6 -20 -7 -20
-3 0 13 -194 3 -202 -10 -6 -9 -8 -9 -8 1 0 7 -4 11 -10 7 -5 -3 -8 -11 -6
-18 1 -7 1 -9 -1 -4 -7 11 -38 8 -52 -5 -8 -7 -11 -8 -8 -2 3 6 0 11 -8 11 -8
0 -12 -4 -9 -9 3 -4 -2 -8 -11 -8 -9 0 -13 -4 -10 -10 3 -5 1 -10 -4 -10 -6 0
-11 6 -11 13 0 8 -4 7 -10 -3 -5 -8 -10 -11 -10 -6 0 5 -6 3 -13 -3 -8 -6 -17
-8 -20 -4 -4 3 -7 -1 -7 -9 0 -10 -8 -14 -24 -13 -19 2 -23 -1 -19 -13 4 -10
2 -13 -5 -8 -7 4 -12 2 -12 -4 0 -6 -4 -9 -9 -6 -5 3 -11 -1 -15 -9 -3 -8 -13
-15 -22 -15 -10 0 -14 -5 -10 -15 4 -13 2 -14 -14 -5 -11 6 -20 7 -19 3 3 -21
-2 -34 -12 -28 -6 4 -13 -3 -16 -15 -3 -13 -11 -19 -19 -16 -8 3 -14 1 -14 -3
0 -5 -14 -23 -30 -41 -17 -18 -28 -35 -25 -38 2 -3 -8 -16 -23 -29 -19 -17
-21 -22 -8 -17 13 5 17 4 12 -4 -4 -7 -14 -12 -22 -12 -11 0 -13 -6 -8 -22 3
-13 3 -20 -1 -16 -5 5 -16 -4 -25 -20 -13 -20 -15 -31 -6 -41 9 -12 8 -13 -3
-6 -11 6 -13 4 -8 -8 4 -11 2 -14 -9 -10 -20 7 -18 -7 4 -23 13 -11 14 -13 1
-9 -13 5 -16 -3 -15 -50 1 -35 -3 -55 -10 -55 -7 0 -11 -13 -10 -30 0 -16 5
-30 11 -30 5 0 3 -5 -5 -10 -13 -8 -13 -10 -1 -10 11 0 9 -4 -5 -15 -18 -14
-18 -14 6 -10 24 4 24 4 6 -10 -18 -14 -15 -20 7 -16 5 1 6 -3 2 -9 -3 -6 -11
-8 -16 -5 -5 4 -9 1 -9 -4 0 -6 5 -11 10 -11 6 0 10 -5 10 -11 0 -5 -5 -7 -10
-4 -6 3 -10 2 -10 -3 0 -6 7 -12 15 -16 20 -7 19 -24 -3 -29 -14 -4 -14 -5 3
-6 16 -1 17 -3 6 -10 -12 -8 -12 -13 -3 -24 7 -8 9 -22 6 -32 -4 -10 -1 -21 7
-26 8 -5 9 -9 3 -9 -6 0 -11 -7 -11 -15 0 -11 6 -13 21 -9 18 6 19 5 4 -10
-17 -16 -14 -56 4 -56 6 0 5 -7 -2 -16 -11 -13 -10 -16 8 -21 12 -3 19 -9 16
-14 -3 -5 -11 -6 -17 -3 -7 4 -2 -4 10 -17 14 -15 21 -33 18 -47 -3 -15 1 -22
12 -22 12 0 13 -3 4 -14 -9 -11 -9 -16 0 -22 8 -4 9 -3 5 4 -15 25 3 10 20
-15 17 -27 17 -28 -2 -13 -18 14 -18 14 -2 -6 10 -11 18 -29 18 -39 0 -15 2
-15 16 -5 8 8 14 9 13 4 -5 -15 12 -54 22 -54 5 0 9 -6 9 -13 0 -14 35 -47 50
-47 6 0 10 -6 10 -14 0 -8 5 -18 12 -22 7 -5 9 -2 4 7 -4 8 4 1 17 -15 14 -16
29 -26 35 -22 5 3 16 -2 23 -12 13 -15 12 -16 -3 -4 -12 10 -18 10 -24 1 -4
-7 -3 -9 4 -5 6 3 13 2 17 -3 3 -6 12 -8 19 -5 7 3 20 -2 29 -10 9 -9 23 -16
31 -16 9 0 16 -5 16 -11 0 -6 9 -9 20 -6 12 3 24 -1 30 -11 8 -14 9 -14 10 -2
0 12 3 11 11 -3 7 -12 17 -16 30 -12 10 4 19 2 19 -3 0 -5 14 -8 30 -7 20 1
29 -2 27 -9 -3 -7 4 -12 14 -12 14 0 15 3 7 13 -8 10 -7 12 6 7 9 -3 16 -11
16 -18 0 -6 5 -4 10 4 5 8 10 10 10 5 0 -6 17 -12 38 -13 20 -2 39 -7 40 -12
2 -6 7 -8 11 -6 9 6 10 1 13 -86 2 -38 7 -68 13 -68 5 0 4 -5 -3 -12 -10 -10
-7 -15 10 -26 l23 -13 -25 5 c-24 5 -24 4 -6 -9 12 -9 15 -15 7 -15 -10 0 -11
-3 -2 -13 6 -8 8 -17 4 -20 -3 -4 -1 -7 6 -7 8 0 9 -5 2 -18 -7 -13 -6 -23 1
-30 9 -9 8 -12 -2 -12 -11 -1 -10 -5 4 -15 11 -8 16 -15 10 -15 -5 0 -9 -20
-8 -45 1 -25 -2 -45 -7 -45 -5 0 -9 -4 -9 -8 0 -5 7 -9 15 -9 8 0 12 4 9 9 -3
4 0 8 5 8 14 0 14 -17 0 -26 -8 -4 -7 -9 2 -15 12 -7 11 -9 -1 -9 -12 -1 -11
-3 3 -11 10 -6 14 -15 10 -22 -11 -17 -11 -29 0 -51 6 -12 5 -16 -1 -12 -6 3
-8 -7 -6 -27 1 -17 3 -49 3 -70 1 -27 5 -36 14 -32 6 4 3 -1 -7 -9 -18 -15
-18 -16 -2 -16 9 0 14 -5 11 -10 -4 -6 -11 -8 -16 -5 -5 3 -6 -1 -3 -9 3 -9
10 -16 14 -16 4 0 11 -7 14 -16 5 -14 4 -15 -9 -4 -13 11 -14 10 -9 -5 6 -14
4 -16 -6 -10 -9 5 -11 4 -6 -4 4 -6 11 -9 15 -7 4 3 8 -1 8 -9 0 -8 -4 -12 -9
-9 -4 3 -8 0 -8 -5 0 -6 6 -11 13 -11 9 0 8 -3 -2 -9 -10 -7 -10 -10 -1 -13
10 -3 13 -39 14 -133 1 -72 4 -135 9 -142 4 -6 4 -14 -1 -17 -10 -6 -6 -71 4
-88 4 -7 3 -8 -4 -4 -7 4 -12 2 -12 -3 0 -6 6 -11 13 -11 8 0 7 -4 -3 -11 -12
-8 -10 -10 10 -5 23 5 23 4 7 -8 -13 -10 -15 -15 -5 -19 10 -4 10 -7 -1 -18
-12 -12 -13 -12 -6 1 5 8 4 11 0 7 -15 -13 -14 -36 0 -31 10 4 12 -1 8 -15 -3
-12 -9 -21 -14 -21 -5 0 -9 -5 -9 -12 0 -9 3 -9 12 0 7 7 16 12 22 12 6 0 5
-5 -2 -12 -13 -13 -16 -32 -4 -24 4 2 8 -4 8 -14 0 -15 -3 -17 -15 -7 -12 10
-13 9 -2 -10 6 -13 9 -23 5 -23 -3 0 -1 -7 6 -15 10 -12 10 -15 0 -15 -10 0
-10 -3 0 -15 10 -12 10 -15 -1 -15 -11 0 -11 -2 0 -9 12 -8 12 -12 2 -25 -8
-9 -9 -16 -3 -16 6 0 9 -8 7 -17 -1 -10 2 -23 7 -30 5 -7 5 -14 -2 -18 -5 -3
-10 -11 -10 -17 0 -6 7 -5 18 3 15 12 16 12 5 -2 -7 -9 -9 -20 -5 -24 4 -5 2
-5 -5 -1 -6 3 -14 2 -18 -4 -3 -5 1 -10 9 -10 9 0 16 -5 16 -11 0 -5 -4 -7
-10 -4 -6 3 -7 -1 -4 -9 3 -9 11 -13 18 -9 6 3 0 -7 -14 -23 -14 -16 -18 -23
-10 -16 18 16 27 15 27 -3 0 -8 -4 -12 -9 -9 -4 3 -8 0 -8 -5 0 -6 6 -11 13
-11 8 0 7 -4 -3 -10 -12 -8 -12 -10 5 -11 l20 0 -20 -9 c-11 -5 -14 -9 -6 -9
11 -1 11 -4 0 -18 -10 -12 -11 -15 -1 -9 9 6 12 -1 11 -26 -2 -18 3 -44 11
-58 13 -24 12 -24 -5 -10 -17 14 -17 14 -7 -6 6 -12 8 -24 5 -28 -3 -3 -2 -6
4 -6 6 0 14 -7 17 -16 5 -14 4 -15 -9 -4 -13 11 -14 10 -9 -4 3 -9 9 -16 13
-16 4 0 7 -13 6 -30 -1 -16 1 -30 4 -30 3 0 12 -9 19 -21 8 -12 9 -19 4 -15
-5 3 -9 -1 -9 -9 0 -8 4 -12 8 -9 4 2 10 0 14 -6 4 -6 12 -7 18 -4 7 4 9 4 5
-1 -4 -4 0 -14 10 -22 9 -8 11 -12 5 -8 -8 4 -11 1 -7 -9 5 -12 10 -13 25 -5
11 5 19 6 18 2 -1 -4 -1 -15 0 -23 1 -13 2 -13 11 0 5 8 10 10 10 4 0 -6 12
-10 28 -10 15 1 33 -3 40 -8 6 -4 12 -5 12 0 0 4 7 -1 16 -12 8 -10 13 -13 9
-6 -3 6 -1 12 4 12 6 0 11 -4 11 -9 0 -5 9 -7 20 -4 12 3 20 0 20 -7 0 -10 3
-10 14 -1 11 9 16 9 22 0 5 -8 3 -9 -6 -4 -9 6 -11 4 -6 -4 5 -7 14 -10 22 -7
8 3 14 0 14 -7 0 -8 4 -6 10 3 5 8 10 10 10 4 0 -7 7 -14 14 -17 10 -4 13 -1
9 9 -5 14 -3 14 15 3 11 -7 18 -18 15 -24 -3 -5 0 -4 8 3 17 16 32 16 23 0 -6
-10 -5 -10 8 -1 8 7 18 9 22 5 12 -11 280 -9 289 3 4 7 10 7 15 0 9 -12 52
-15 52 -3 0 4 -5 8 -12 8 -6 0 -8 3 -5 6 4 4 13 1 21 -5 8 -7 17 -8 20 -3 3 5
15 12 26 15 16 4 19 2 11 -7 -7 -8 -3 -11 15 -11 13 1 27 5 31 10 5 4 2 5 -6
0 -9 -5 -12 -4 -7 3 4 7 15 8 30 2 17 -6 30 -4 46 7 13 9 20 11 16 5 -4 -7 3
-10 21 -9 15 1 31 9 35 17 5 12 7 11 7 -4 1 -20 1 -20 17 0 8 10 13 13 9 7 -3
-7 -1 -13 4 -13 6 0 11 6 11 13 0 8 4 7 10 -3 9 -13 10 -13 10 0 0 13 1 13 10
0 7 -11 10 -11 10 -2 0 7 3 11 8 8 13 -8 74 23 70 36 -2 6 4 20 15 31 14 14
16 21 6 33 -9 11 -9 14 2 14 11 0 11 2 -1 10 -14 9 -7 15 14 11 5 -1 4 5 -4
13 -7 9 -9 16 -5 16 4 0 1 7 -6 17 -13 15 -12 15 7 5 16 -9 21 -8 21 3 0 8 -4
12 -9 9 -11 -7 -10 3 4 29 10 19 9 20 -3 10 -12 -10 -15 -8 -15 6 0 13 6 17
21 14 12 -3 16 -1 10 4 -12 9 -13 42 -3 59 4 6 4 14 1 18 -12 11 -12 36 0 29
6 -4 8 0 5 9 -4 8 -2 21 2 29 6 9 3 20 -7 32 -16 17 -16 17 3 11 17 -7 17 -6
5 9 -12 16 -12 17 5 10 17 -6 17 -5 5 10 -11 14 -11 17 0 17 11 0 11 3 -1 11
-10 7 -11 12 -3 15 6 3 9 21 7 45 -2 23 1 39 7 39 6 0 7 6 3 12 -14 22 -11 48
5 48 12 0 11 3 -4 13 -13 10 -15 16 -6 21 6 4 9 12 6 17 -4 5 -1 9 5 9 7 0 9
8 5 21 -4 12 -3 19 1 16 5 -3 8 29 7 71 -2 52 1 72 7 62 6 -9 10 -10 10 -3 0
6 -5 15 -11 18 -7 5 -4 14 7 26 16 18 17 19 1 13 -13 -5 -16 -2 -11 10 3 9 9
14 14 11 4 -2 5 7 2 20 -3 16 0 25 9 25 8 0 6 5 -6 13 -13 10 -15 16 -6 21 6
4 9 12 5 17 -3 5 -2 15 3 22 10 14 10 38 0 54 -4 6 -3 14 3 18 15 9 12 28 -2
19 -7 -4 -6 1 3 12 24 28 34 48 21 40 -6 -3 -13 -2 -17 4 -3 5 -1 10 5 10 7 0
9 8 5 21 -6 16 -4 20 6 14 8 -5 11 -5 7 0 -4 4 -3 14 3 21 7 8 6 14 -2 20 -8
5 -9 3 -4 -6 6 -9 4 -11 -4 -5 -9 5 -9 11 -3 17 6 6 8 17 5 26 -5 11 -2 13 8
7 11 -6 11 -5 2 5 -9 10 -8 19 5 39 13 21 14 24 2 14 -13 -10 -15 -8 -14 15 0
14 6 28 12 30 7 2 12 8 12 13 0 6 -6 7 -12 3 -10 -6 -10 -4 -2 7 6 8 10 24 9
36 -1 13 2 23 6 23 5 0 4 12 -1 26 -7 19 -7 23 2 18 7 -5 9 -2 5 8 -3 9 0 21
6 28 8 9 8 11 1 7 -8 -4 -11 5 -10 27 1 34 15 40 17 8 0 -10 3 -12 5 -5 3 7 0
22 -6 34 -9 17 -9 23 0 29 8 5 9 10 2 14 -6 4 -9 13 -6 21 4 8 11 12 17 8 6
-4 7 -1 2 7 -11 18 -13 60 -3 54 10 -6 11 10 1 20 -12 12 -12 38 0 33 8 -3 11
8 10 32 -1 20 -2 36 -3 36 -1 0 -3 10 -4 22 -2 14 2 19 11 16 7 -3 13 0 13 6
0 6 -5 11 -12 11 -9 0 -9 3 0 12 16 16 15 31 0 22 -9 -5 -9 -2 1 9 7 9 10 17
6 17 -4 0 -1 8 6 17 8 9 9 14 4 11 -16 -9 -10 89 6 109 10 12 10 15 2 9 -7 -4
-13 -4 -14 1 0 4 -2 18 -3 31 -2 14 3 22 13 22 13 0 13 2 3 9 -8 4 -12 17 -11
27 2 11 -1 25 -5 33 -7 11 -5 13 9 7 18 -6 18 -6 -1 15 -14 17 -15 21 -4 17
11 -4 16 0 16 13 0 11 -4 15 -11 9 -7 -6 -11 -2 -11 11 0 10 6 19 14 19 10 0
10 4 -2 16 -21 20 -20 28 0 20 14 -6 15 -4 3 10 -18 21 -20 56 -2 50 10 -4 9
1 -3 18 -14 22 -14 25 3 35 10 6 13 11 7 11 -20 0 -24 39 -6 50 15 8 15 10 -3
10 -11 1 -15 4 -8 6 8 4 9 13 3 29 -6 15 -6 27 1 30 6 4 6 13 0 23 -5 9 -5 26
0 40 6 15 5 21 -1 17 -6 -3 -10 -2 -10 4 0 5 4 12 9 15 11 7 2 48 -13 58 -7 5
-7 8 -1 8 6 0 11 11 11 25 1 14 -2 22 -7 19 -5 -3 -9 4 -9 16 0 14 -4 19 -12
14 -10 -6 -10 -5 -1 7 10 12 7 19 -14 34 -14 11 -35 19 -47 19 -11 0 -24 5
-28 10 -5 7 -8 6 -8 -3 0 -11 -4 -10 -16 5 -8 10 -13 14 -10 8 3 -7 -1 -15
-10 -18 -12 -5 -15 -2 -10 9 4 10 2 14 -5 9 -6 -4 -15 0 -21 7 -7 11 -8 11 -6
-3 2 -9 -1 -16 -7 -15 -5 1 -9 5 -8 9 1 3 -4 9 -12 12 -10 3 -12 0 -8 -11 5
-13 3 -14 -15 -4 -19 10 -22 9 -22 -6 0 -15 -2 -15 -9 -3 -6 8 -8 17 -5 21 6
10 -24 5 -33 -6 -4 -4 -2 -5 6 0 10 6 12 4 7 -4 -6 -9 -12 -9 -25 3 -19 17
-25 50 -8 39 6 -4 8 2 5 15 -4 12 -1 20 4 19 6 -1 13 4 16 12 3 9 0 11 -9 6
-11 -6 -11 -5 -2 5 6 7 9 19 6 27 -3 8 0 13 7 11 7 -2 15 3 18 11 3 9 0 11 -7
6 -9 -5 -9 -2 0 13 7 12 18 18 24 14 5 -3 3 2 -5 12 -13 16 -12 20 4 31 17 13
17 13 -1 18 -16 4 -16 5 -1 6 11 1 15 7 12 15 -3 8 -1 17 5 21 6 3 11 11 11
16 0 6 -5 7 -12 3 -7 -5 -8 -3 -4 5 5 7 14 10 21 7 14 -5 13 22 0 44 -3 6 1
13 9 16 9 3 16 10 16 16 0 5 -5 6 -10 3 -6 -4 -5 4 1 19 7 14 15 24 18 22 4
-3 7 9 7 25 1 17 -2 26 -9 22 -6 -3 -7 -1 -3 6 6 9 11 9 22 0 13 -10 13 -8 4
15 -7 20 -7 25 2 20 8 -5 9 -2 5 9 -4 12 -1 17 10 17 14 0 14 2 -3 15 -17 13
-17 14 -2 15 12 0 15 5 11 17 -4 11 -3 14 5 9 7 -4 12 -3 12 3 0 5 -5 11 -11
13 -8 3 -6 10 5 21 13 12 14 17 4 17 -10 0 -9 3 2 10 8 5 16 24 17 42 4 54 6
58 20 58 12 0 11 3 -1 16 -20 20 -20 25 0 17 12 -4 14 0 8 21 -3 15 -2 26 4
26 6 0 9 8 7 18 -1 9 4 30 12 46 8 15 13 37 10 47 -3 10 2 20 10 23 8 3 13 14
11 23 -2 10 5 25 16 34 15 12 16 18 6 24 -8 5 -11 4 -6 -3 3 -6 2 -13 -3 -16
-5 -4 -8 2 -7 11 2 9 8 19 14 21 7 2 10 8 6 13 -3 5 1 9 8 9 10 0 9 3 -2 10
-12 8 -12 10 3 16 9 3 14 10 12 15 -3 5 2 21 12 36 10 15 12 24 6 20 -9 -5
-13 -2 -13 8 0 9 3 14 8 11 4 -2 16 3 27 11 19 15 19 15 -5 9 -14 -3 -19 -3
-12 0 6 3 10 10 7 15 -4 5 1 6 9 3 9 -3 16 -1 16 5 0 6 5 11 11 11 5 0 8 -4 5
-8 -2 -4 4 -8 14 -8 10 0 17 3 14 7 -2 4 3 10 12 13 8 3 13 2 10 -3 -7 -10 34
-8 54 3 8 5 12 6 8 1 -11 -11 23 -34 50 -35 16 0 21 -4 16 -12 -6 -10 -5 -10
7 -1 13 10 19 10 35 -3 10 -8 13 -12 5 -8 -9 5 -12 3 -7 -5 4 -6 11 -9 16 -6
5 3 14 0 22 -7 7 -7 22 -15 33 -16 11 -2 27 -10 35 -17 8 -7 21 -10 28 -8 9 3
12 -2 10 -13 -2 -14 2 -18 16 -16 12 2 15 -1 11 -8 -5 -9 -1 -10 14 -5 15 4
21 3 19 -7 -2 -7 3 -12 10 -10 6 1 12 -4 12 -10 0 -9 4 -8 10 2 8 13 10 12 10
-3 0 -10 5 -15 10 -12 6 3 10 1 10 -4 0 -6 5 -11 11 -11 5 0 8 4 5 8 -3 5 1 9
9 9 8 0 12 -4 9 -8 -2 -4 24 -6 58 -5 35 2 69 -1 76 -7 10 -8 12 -7 10 4 -2 8
4 13 14 13 10 -1 16 3 15 9 -1 6 3 11 10 12 6 0 15 4 20 9 4 5 3 6 -3 3 -7 -4
-14 -1 -17 7 -3 8 0 17 8 19 9 4 13 26 13 71 0 47 -4 64 -12 59 -8 -5 -8 -3 1
8 9 11 8 18 -1 31 -7 10 -16 15 -19 11 -4 -3 -7 1 -7 10 0 9 -5 17 -11 17 -5
0 -7 5 -3 12 4 7 3 8 -5 4 -6 -4 -14 0 -17 9 -6 13 -8 14 -15 3 -7 -10 -9 -9
-9 5 0 10 -4 15 -10 12 -5 -3 -10 -2 -10 4 0 5 -9 8 -20 6 -18 -3 -25 5 -21
27 0 4 -5 5 -13 2 -8 -3 -17 -1 -21 5 -3 6 -12 11 -18 11 -7 0 -6 -4 3 -10 13
-8 12 -10 -2 -10 -10 0 -18 3 -18 8 0 4 -9 13 -21 20 -14 9 -19 10 -14 2 4 -7
-4 -4 -18 5 -15 9 -32 13 -38 9 -8 -4 -9 -3 -5 4 5 8 0 12 -13 12 -12 0 -21 5
-21 10 0 6 -11 10 -25 10 -14 0 -25 5 -25 11 0 8 -5 8 -15 -1 -12 -10 -15 -10
-15 4 0 9 -4 17 -10 17 -5 1 -14 3 -20 4 -5 1 -21 3 -35 4 -14 0 -23 6 -21 14
1 6 1 9 -1 5 -3 -5 -13 -3 -23 2 -13 7 -20 6 -23 -3 -3 -6 -6 -2 -6 10 -1 16
-6 21 -21 18 -11 -2 -20 1 -20 6 0 6 -4 7 -10 4 -5 -3 -10 0 -10 8 0 9 -10 13
-29 12 -18 -1 -27 3 -25 10 6 16 -33 16 -46 0z m91 -348 c-10 -9 -11 -8 -5 6
3 10 9 15 12 12 3 -3 0 -11 -7 -18z m86 -23 c-3 -3 -12 -4 -19 -1 -8 3 -5 6 6
6 11 1 17 -2 13 -5z m553 -109 c0 -5 -5 -3 -10 5 -5 8 -10 20 -10 25 0 6 5 3
10 -5 5 -8 10 -19 10 -25z m-922 -460 c-3 -3 -9 2 -12 12 -6 14 -5 15 5 6 7
-7 10 -15 7 -18z m-2099 -68 c-2 -1 -12 -9 -22 -16 -15 -12 -17 -12 -11 3 3 9
13 16 22 16 8 0 13 -1 11 -3z m-161 -392 c-3 -3 -9 2 -12 12 -6 14 -5 15 5 6
7 -7 10 -15 7 -18z m1809 -80 c0 -8 -4 -12 -9 -9 -5 3 -6 10 -3 15 9 13 12 11
12 -6z m-1004 -1290 c-3 -9 -8 -14 -10 -11 -3 3 -2 9 2 15 9 16 15 13 8 -4z"/>
<path d="M3876 4427 c3 -10 9 -15 12 -12 3 3 0 11 -7 18 -10 9 -11 8 -5 -6z"/>
<path d="M4146 4318 c3 -5 10 -6 15 -3 13 9 11 12 -6 12 -8 0 -12 -4 -9 -9z"/>
<path d="M4186 4318 c3 -5 10 -6 15 -3 13 9 11 12 -6 12 -8 0 -12 -4 -9 -9z"/>
<path d="M2465 3600 c-3 -5 -1 -10 4 -10 6 0 11 5 11 10 0 6 -2 10 -4 10 -3 0
-8 -4 -11 -10z"/>
<path d="M2806 3252 c-3 -5 1 -9 9 -9 8 0 12 4 9 9 -3 4 -7 8 -9 8 -2 0 -6 -4
-9 -8z"/>
<path d="M1915 1581 c-3 -5 -2 -12 3 -15 5 -3 9 1 9 9 0 17 -3 19 -12 6z"/>
</g>
</svg>
